<?xml version="1.0" encoding="UTF-8"?>
<svg id="Layer_1" data-name="Layer 1" xmlns="http://www.w3.org/2000/svg" viewBox="0 0 24 24">
  <defs>
    <style>
      .cls-1 {
        fill: #ff5e55;
      }
    </style>
  </defs>
  <path class="cls-1" d="m16.71,2.29c-.19-.19-.44-.29-.71-.29h-8c-.27,0-.52.11-.71.29L2.29,7.29c-.19.19-.29.44-.29.71v8c0,.27.11.52.29.71l5,5c.19.19.44.29.71.29h8c.27,0,.52-.1.71-.29l5-5c.19-.19.29-.44.29-.71v-8c0-.27-.11-.52-.29-.71,0,0-5-5-5-5Zm-3.71,14.71h-2v-2h2v2Zm0-4h-2v-6h2v6Z"/>
</svg>